# xmcd
#
# Track frame offsets:
#	150
#	17342
#	31090
#	45663
#	57668
#	70403
#	87233
#	102884
#	123687
#	136959
#	149465
#	165680
#	177003
#	188865
#	200895
#	214349
#	226747
#	241136
#	255858
#	268734
#	282745
#	303068
#	321583
#
# Disc length: 4404 seconds
#
# Revision: 0
# Processed by: cddbd v1.5.2PL0 Copyright (c) Steve Scherf et al.
# Submitted via: dBpowerAMP V4.0
#
DISCID=54113217
DTITLE=Frank Sinatra - Greatest Hits 2
DYEAR=1900
DGENRE=
TTITLE0=A man alone
TTITLE1=Beeing green
TTITLE2=Cycles
TTITLE3=Forget domani
TTITLE4=Goin' out of my head
TTITLE5=I'm not afraid
TTITLE6=Love's been good to me
TTITLE7=My way
TTITLE8=Softly as I leave you
TTITLE9=Somethin' stupid
TTITLE10=Something
TTITLE11=Somewhere in your heart
TTITLE12=Star!
TTITLE13=Strangers in the night
TTITLE14=Summer wind
TTITLE15=Tell her
TTITLE16=That's life
TTITLE17=The september of my years
TTITLE18=The world we knew
TTITLE19=This town
TTITLE20=Was a very good year
TTITLE21=What's now is now
TTITLE22=When somebody loves you
EXTD=
EXTT0=
EXTT1=
EXTT2=
EXTT3=
EXTT4=
EXTT5=
EXTT6=
EXTT7=
EXTT8=
EXTT9=
EXTT10=
EXTT11=
EXTT12=
EXTT13=
EXTT14=
EXTT15=
EXTT16=
EXTT17=
EXTT18=
EXTT19=
EXTT20=
EXTT21=
EXTT22=
PLAYORDER=
